<svg xmlns="http://www.w3.org/2000/svg" viewBox="0 0 48 48">
  <defs>
    <linearGradient id="pc-right" x1="0" y1="0" x2="1" y2="1">
      <stop offset="0" stop-color="#1d4ed8"/>
      <stop offset="1" stop-color="#38bdf8"/>
    </linearGradient>
    <linearGradient id="pc-left" x1="0" y1="0" x2="1" y2="1">
      <stop offset="0" stop-color="#0f2a6e"/>
      <stop offset="1" stop-color="#1e3a8a"/>
    </linearGradient>
    <radialGradient id="pc-circle" cx="0.35" cy="0.3" r="1">
      <stop offset="0" stop-color="#60a5fa"/>
      <stop offset="1" stop-color="#1d4ed8"/>
    </radialGradient>
  </defs>
  <!-- painel esquerdo -->
  <path d="M6.5 8.6 18.5 11.4v25.4L6.5 39.4c-1.4.3-2.5-.6-2.5-2V11.1c0-1.4 1.1-2.8 2.5-2.5z" fill="url(#pc-left)"/>
  <g fill="#93b4f5">
    <circle cx="9.4" cy="16" r="1.5"/>
    <rect x="12.4" y="14.9" width="5.6" height="2.2" rx="1.1"/>
    <circle cx="9.4" cy="23.4" r="1.5"/>
    <rect x="12.4" y="22.3" width="5.6" height="2.2" rx="1.1"/>
    <circle cx="9.4" cy="30.8" r="1.5"/>
    <rect x="12.4" y="29.7" width="5.6" height="2.2" rx="1.1"/>
  </g>
  <!-- painel direito -->
  <path d="M41.5 8.6 29.5 11.4v25.4l12 2.6c1.4.3 2.5-.6 2.5-2V11.1c0-1.4-1.1-2.8-2.5-2.5z" fill="url(#pc-right)"/>
  <g fill="#ffffff">
    <circle cx="38.6" cy="16" r="1.5"/>
    <rect x="30" y="14.9" width="5.6" height="2.2" rx="1.1"/>
    <circle cx="38.6" cy="23.4" r="1.5"/>
    <rect x="30" y="22.3" width="5.6" height="2.2" rx="1.1"/>
    <circle cx="38.6" cy="30.8" r="1.5"/>
    <rect x="30" y="29.7" width="5.6" height="2.2" rx="1.1"/>
  </g>
  <!-- circulo de conferencia -->
  <circle cx="24" cy="24" r="9.6" fill="url(#pc-circle)" stroke="#ffffff" stroke-width="2.6"/>
  <path d="m20 24 3 3 6-6" fill="none" stroke="#ffffff" stroke-width="2.4" stroke-linecap="round" stroke-linejoin="round"/>
  <!-- sombra suave -->
  <ellipse cx="24" cy="44.6" rx="14" ry="2" fill="#1d4ed8" opacity="0.12"/>
</svg>
